<?xml version="1.0" encoding="utf-8"?>
<!-- Generator: Adobe Illustrator 25.4.1, SVG Export Plug-In . SVG Version: 6.00 Build 0)  -->
<svg version="1.1" id="Layer_1" xmlns="http://www.w3.org/2000/svg" xmlns:xlink="http://www.w3.org/1999/xlink" x="0px" y="0px"
	 viewBox="0 0 500 500" style="enable-background:new 0 0 500 500;" xml:space="preserve">
<style type="text/css">
	.st0{display:none;}
	.st1{fill:none;stroke:#9250C5;stroke-width:27;stroke-miterlimit:10;}
	.st2{fill:none;}
	.st3{enable-background:new    ;}
	.st4{fill:#F99FFF;}
	.st5{fill:none;stroke:#9250C5;stroke-width:6;stroke-miterlimit:10;}
</style>
<g>
	
		<image style="overflow:visible;enable-background:new    ;" width="489" height="487" xlink:href="B4AC4168.png"  transform="matrix(1 0 0 1 5 5.57)">
	</image>
</g>
<g class="st0">
	
		<image style="display:inline;overflow:visible;enable-background:new    ;" width="489" height="487" xlink:href="B4AC416E.png"  transform="matrix(1 0 0 1 3 -6)">
	</image>
</g>
<g>
	
		<image style="overflow:visible;opacity:0.16;enable-background:new    ;" width="485" height="485" xlink:href="B4AC416A.png"  transform="matrix(1 0 0 1 10 8)">
	</image>
	<g>
		<path class="st1" d="M422.2,458.6H76.5c-22.5,0-40.7-18.2-40.7-40.7V72.2c0-22.5,18.2-40.7,40.7-40.7h345.7
			c22.5,0,40.7,18.2,40.7,40.7v345.7C462.9,440.4,444.7,458.6,422.2,458.6z"/>
	</g>
</g>
<rect x="79.6" y="151.4" class="st2" width="336" height="250.2"/>
<g class="st3">
	<path class="st4" d="M220.5,185.9c0,21.8-17.5,35.4-37,35.4c-18.8,0-34.6-14.9-34.6-34.8c0-20.5,13.3-37.5,35.8-37.5
		C207.7,149,220.5,166.8,220.5,185.9z M198.7,186.7c0-7.3-4.8-15.1-13.8-15.1c-9.1,0-15,6.7-15,16.4c0,7.9,4.8,15.6,15.1,15.6
		C193.4,203.6,198.7,196.7,198.7,186.7z"/>
	<path class="st4" d="M268.3,159.1c-0.7-6.8,0.7-8.5,7.6-9c6.5-0.7,8.4,1,9,7.5c0.4,4.3,0.6,8.9,0.6,13.5c0,25.8-6.9,53.3-29.1,53.3
		c-20.6,0-30.3-25.1-30.3-54.3c0-3.7,0.3-7.9,0.7-12c0.7-7.3,2.8-9.3,10.2-8.4l2.8,0.4c7.8,0.8,9,2.4,8.2,10.2
		c-0.3,3.2-0.5,6.6-0.5,9.4c0,17.4,3.2,29,10.5,29c8.3,0,10.9-11.2,10.9-27.1C268.9,167.1,268.6,162.9,268.3,159.1z"/>
	<path class="st4" d="M344.8,206c4.4,5.9,3.9,8.5-2.7,11.8l-3.2,1.7c-6.7,3.5-9.1,2.5-12.1-4.3l-7.5-17.6c-2.5,1.4-5.5,2.5-7.7,3.3
		l1.1,10.2c0.8,7.5-0.8,9.2-8.3,10.7l-1.9,0.4c-7.2,1.4-9.3-0.6-9.5-8l-1.4-53.5c-0.2-7.3,1.9-9.6,9.1-10.4
		c3.7-0.5,7.5-0.7,11.2-0.7c17.9,0,34.1,5.6,34.1,20.7c0,7.9-4.8,14.4-13.1,20L344.8,206z M307.4,167.3l2.1,17.1
		c9.5-1.5,17.2-5.9,17.2-11.8c0-5.5-4.1-7-8.8-7C314.1,165.5,310.1,166.5,307.4,167.3z"/>
</g>
<g class="st3">
	<path class="st5" d="M220.5,185.9c0,21.8-17.5,35.4-37,35.4c-18.8,0-34.6-14.9-34.6-34.8c0-20.5,13.3-37.5,35.8-37.5
		C207.7,149,220.5,166.8,220.5,185.9z M198.7,186.7c0-7.3-4.8-15.1-13.8-15.1c-9.1,0-15,6.7-15,16.4c0,7.9,4.8,15.6,15.1,15.6
		C193.4,203.6,198.7,196.7,198.7,186.7z"/>
	<path class="st5" d="M268.3,159.1c-0.7-6.8,0.7-8.5,7.6-9c6.5-0.7,8.4,1,9,7.5c0.4,4.3,0.6,8.9,0.6,13.5c0,25.8-6.9,53.3-29.1,53.3
		c-20.6,0-30.3-25.1-30.3-54.3c0-3.7,0.3-7.9,0.7-12c0.7-7.3,2.8-9.3,10.2-8.4l2.8,0.4c7.8,0.8,9,2.4,8.2,10.2
		c-0.3,3.2-0.5,6.6-0.5,9.4c0,17.4,3.2,29,10.5,29c8.3,0,10.9-11.2,10.9-27.1C268.9,167.1,268.6,162.9,268.3,159.1z"/>
	<path class="st5" d="M344.8,206c4.4,5.9,3.9,8.5-2.7,11.8l-3.2,1.7c-6.7,3.5-9.1,2.5-12.1-4.3l-7.5-17.6c-2.5,1.4-5.5,2.5-7.7,3.3
		l1.1,10.2c0.8,7.5-0.8,9.2-8.3,10.7l-1.9,0.4c-7.2,1.4-9.3-0.6-9.5-8l-1.4-53.5c-0.2-7.3,1.9-9.6,9.1-10.4
		c3.7-0.5,7.5-0.7,11.2-0.7c17.9,0,34.1,5.6,34.1,20.7c0,7.9-4.8,14.4-13.1,20L344.8,206z M307.4,167.3l2.1,17.1
		c9.5-1.5,17.2-5.9,17.2-11.8c0-5.5-4.1-7-8.8-7C314.1,165.5,310.1,166.5,307.4,167.3z"/>
</g>
<g class="st3">
	<path class="st4" d="M147.1,325.3c0.3,7.6-1.4,9.6-8.9,10.5l-1.8,0.2c-7.3,0.9-9.2-0.8-9-8.3l1.1-41.7l-8.6,0.6
		c-7.5,0.6-9.5-1.2-9.4-8.7l0.1-6.3c0.1-7.5,1.9-9.3,9.4-8.8l38.2,2.3c7.1,0.5,8.8,2.3,8.6,9.6c-0.2,7.1-1.9,8.9-9,9.4l-12,0.8
		L147.1,325.3z"/>
	<path class="st4" d="M221.2,324.4c0.3,7.5-1.3,9.4-8.8,9.3l-26.4-0.5c-7.6-0.1-9.6-1.9-10.2-9.5l-3.9-50c-0.6-7.6,1-9.6,8.6-10.5
		l27-3.2c6.4-0.8,8.1,0.7,8.6,7.2c0.5,6.5-1,8.3-7.4,9l-17.9,2.1l0.9,9.6l12.8-0.9c6-0.5,7.6,0.8,8.2,7c0.6,5.9-0.8,7.5-6.7,8.1
		l-12.4,1l1.4,10.2l16-1.6c7.5-0.8,9.5,0.9,10,8.5L221.2,324.4z"/>
	<path class="st4" d="M289.1,324.5c2.4,6.9,0.9,8.9-6.3,9.2l-3.1,0.2c-9.5,0.6-9.9-1.3-11.7-8.7l-2.1-8.1l-18.1,0.7l-1,5.7
		c-1.3,7.5-1.7,9-11.2,9.7l-2.7,0.2c-7.2,0.4-8.8-1.6-7-8.6l14.4-52.7c2-7.4,4.1-9.4,17.3-10.3c7.7-0.6,10,0.8,12.5,8.1L289.1,324.5
		z M262.6,304.7l-7-22.2l-5.4,22.2H262.6z"/>
	<path class="st4" d="M383.4,324.5c0.8,7.4-1,9.3-8.5,9.1c-12.3-0.4-14.1-1.3-14.7-9.9l-2.2-32.9l-13.3,35.9c-1.5,3.9-2.7,4.7-7,4.4
		c-4.2-0.2-5.5-1.1-6.9-5.2l-11.7-34.3l-2.1,32.1c-0.5,7.5-2.5,9-13.4,7.2c-7.5-1.2-9-3.3-7.7-10.8l8.3-49.5c1.3-7.5,3.4-9,11-8.6
		l4.3,0.3c7.7,0.5,10,2.3,12.6,9.6l8.8,24.2l9.3-22.3c3-7,5.4-8.8,13.1-9l4.8-0.1c7.6-0.2,9.6,1.4,10.3,9L383.4,324.5z"/>
</g>
<g class="st3">
	<path class="st5" d="M147.1,325.3c0.3,7.6-1.4,9.6-8.9,10.5l-1.8,0.2c-7.3,0.9-9.2-0.8-9-8.3l1.1-41.7l-8.6,0.6
		c-7.5,0.6-9.5-1.2-9.4-8.7l0.1-6.3c0.1-7.5,1.9-9.3,9.4-8.8l38.2,2.3c7.1,0.5,8.8,2.3,8.6,9.6c-0.2,7.1-1.9,8.9-9,9.4l-12,0.8
		L147.1,325.3z"/>
	<path class="st5" d="M221.2,324.4c0.3,7.5-1.3,9.4-8.8,9.3l-26.4-0.5c-7.6-0.1-9.6-1.9-10.2-9.5l-3.9-50c-0.6-7.6,1-9.6,8.6-10.5
		l27-3.2c6.4-0.8,8.1,0.7,8.6,7.2c0.5,6.5-1,8.3-7.4,9l-17.9,2.1l0.9,9.6l12.8-0.9c6-0.5,7.6,0.8,8.2,7c0.6,5.9-0.8,7.5-6.7,8.1
		l-12.4,1l1.4,10.2l16-1.6c7.5-0.8,9.5,0.9,10,8.5L221.2,324.4z"/>
	<path class="st5" d="M289.1,324.5c2.4,6.9,0.9,8.9-6.3,9.2l-3.1,0.2c-9.5,0.6-9.9-1.3-11.7-8.7l-2.1-8.1l-18.1,0.7l-1,5.7
		c-1.3,7.5-1.7,9-11.2,9.7l-2.7,0.2c-7.2,0.4-8.8-1.6-7-8.6l14.4-52.7c2-7.4,4.1-9.4,17.3-10.3c7.7-0.6,10,0.8,12.5,8.1L289.1,324.5
		z M262.6,304.7l-7-22.2l-5.4,22.2H262.6z"/>
	<path class="st5" d="M383.4,324.5c0.8,7.4-1,9.3-8.5,9.1c-12.3-0.4-14.1-1.3-14.7-9.9l-2.2-32.9l-13.3,35.9c-1.5,3.9-2.7,4.7-7,4.4
		c-4.2-0.2-5.5-1.1-6.9-5.2l-11.7-34.3l-2.1,32.1c-0.5,7.5-2.5,9-13.4,7.2c-7.5-1.2-9-3.3-7.7-10.8l8.3-49.5c1.3-7.5,3.4-9,11-8.6
		l4.3,0.3c7.7,0.5,10,2.3,12.6,9.6l8.8,24.2l9.3-22.3c3-7,5.4-8.8,13.1-9l4.8-0.1c7.6-0.2,9.6,1.4,10.3,9L383.4,324.5z"/>
</g>
</svg>
